# xmcd
#
# Track frame offsets:
#	150
#	17093
#	27788
#	38087
#	49338
#	62319
#	74683
#	86601
#	101727
#	122355
#	135684
#	144644
#	157623
#	171144
#	182366
#	193618
#	203654
#	215898
#	228749
#	245847
#
# Disc length: 3409 seconds
#
# Revision: 1
# Processed by: cddbd v1.5.2PL0 Copyright (c) Steve Scherf et al.
# Submitted via: audiograbber 1.83.01
#
DISCID=190d4f14
DTITLE=Various Artist - Oldies But Goldies(LP) - CD 1
DYEAR=1900
DGENRE=Oldies
TTITLE0=The Rolling Stones - (I Can't Get No) Satisfaction
TTITLE1=Brian Poole And The Tremeloes - Do You Love Me
TTITLE2=Chubby Checker - Let's Twist Again
TTITLE3=Fabian  - Tiger
TTITLE4=Lulu And The Luvers - Shout
TTITLE5=Them - Here Comes The Night
TTITLE6=Cat Stevens - Matthew And Son
TTITLE7=The Fortunes - You've Got Your Troubles
TTITLE8=Melanie  - Ruby Tuesday
TTITLE9=Engelbert  - The Lats Waltz
TTITLE10=The Everly Brothers - Wake Up Little Susie
TTITLE11=John Fred And His Playboy Band - Judy In Disquise
TTITLE12=The McCoys - Hang On Sloopy
TTITLE13=Dee Dee Sharp - Mashed Potato Time
TTITLE14=Freddie Cannon - Way Down Yonder In New Orleans
TTITLE15=Lord Rockingham's X1 - Hoots Moon
TTITLE16=Screaming Lord Sutch - Jack The Ripper
TTITLE17=The Shangri Las - Leader Of The Pack
TTITLE18=Ray Stevens - Ahab The Arab
TTITLE19=Andre Brasseur - Early Bird
EXTD=
EXTT0=
EXTT1=
EXTT2=
EXTT3=
EXTT4=
EXTT5=
EXTT6=
EXTT7=
EXTT8=
EXTT9=
EXTT10=
EXTT11=
EXTT12=
EXTT13=
EXTT14=
EXTT15=
EXTT16=
EXTT17=
EXTT18=
EXTT19=
PLAYORDER=
